<?xml version="1.0" encoding="utf-8" standalone="no"?>
<!DOCTYPE svg PUBLIC "-//W3C//DTD SVG 1.1//EN"
  "http://www.w3.org/Graphics/SVG/1.1/DTD/svg11.dtd">
<!-- Created with matplotlib (https://matplotlib.org/) -->
<svg height="304.494375pt" version="1.1" viewBox="0 0 497.38125 304.494375" width="497.38125pt" xmlns="http://www.w3.org/2000/svg" xmlns:xlink="http://www.w3.org/1999/xlink">
 <metadata>
  <rdf:RDF xmlns:cc="http://creativecommons.org/ns#" xmlns:dc="http://purl.org/dc/elements/1.1/" xmlns:rdf="http://www.w3.org/1999/02/22-rdf-syntax-ns#">
   <cc:Work>
    <dc:type rdf:resource="http://purl.org/dc/dcmitype/StillImage"/>
    <dc:date>2020-11-11T16:51:24.914491</dc:date>
    <dc:format>image/svg+xml</dc:format>
    <dc:creator>
     <cc:Agent>
      <dc:title>Matplotlib v3.3.2, https://matplotlib.org/</dc:title>
     </cc:Agent>
    </dc:creator>
   </cc:Work>
  </rdf:RDF>
 </metadata>
 <defs>
  <style type="text/css">*{stroke-linecap:butt;stroke-linejoin:round;}</style>
 </defs>
 <g id="figure_1">
  <g id="patch_1">
   <path d="M 0 304.494375 
L 497.38125 304.494375 
L 497.38125 0 
L 0 0 
z
" style="fill:none;"/>
  </g>
  <g id="axes_1">
   <g id="patch_2">
    <path d="M 43.78125 266.938125 
L 490.18125 266.938125 
L 490.18125 22.318125 
L 43.78125 22.318125 
z
" style="fill:#ffffff;"/>
   </g>
   <g id="matplotlib.axis_1">
    <g id="xtick_1">
     <g id="line2d_1">
      <defs>
       <path d="M 0 0 
L 0 3.5 
" id="mea4af9f9e9" style="stroke:#000000;stroke-width:0.8;"/>
      </defs>
      <g>
       <use style="stroke:#000000;stroke-width:0.8;" x="86.978105" xlink:href="#mea4af9f9e9" y="266.938125"/>
      </g>
     </g>
     <g id="text_1">
      <!-- −5.0 -->
      <g transform="translate(74.836699 281.536563)scale(0.1 -0.1)">
       <defs>
        <path d="M 10.59375 35.5 
L 73.1875 35.5 
L 73.1875 27.203125 
L 10.59375 27.203125 
z
" id="DejaVuSans-8722"/>
        <path d="M 10.796875 72.90625 
L 49.515625 72.90625 
L 49.515625 64.59375 
L 19.828125 64.59375 
L 19.828125 46.734375 
Q 21.96875 47.46875 24.109375 47.828125 
Q 26.265625 48.1875 28.421875 48.1875 
Q 40.625 48.1875 47.75 41.5 
Q 54.890625 34.8125 54.890625 23.390625 
Q 54.890625 11.625 47.5625 5.09375 
Q 40.234375 -1.421875 26.90625 -1.421875 
Q 22.3125 -1.421875 17.546875 -0.640625 
Q 12.796875 0.140625 7.71875 1.703125 
L 7.71875 11.625 
Q 12.109375 9.234375 16.796875 8.0625 
Q 21.484375 6.890625 26.703125 6.890625 
Q 35.15625 6.890625 40.078125 11.328125 
Q 45.015625 15.765625 45.015625 23.390625 
Q 45.015625 31 40.078125 35.4375 
Q 35.15625 39.890625 26.703125 39.890625 
Q 22.75 39.890625 18.8125 39.015625 
Q 14.890625 38.140625 10.796875 36.28125 
z
" id="DejaVuSans-53"/>
        <path d="M 10.6875 12.40625 
L 21 12.40625 
L 21 0 
L 10.6875 0 
z
" id="DejaVuSans-46"/>
        <path d="M 31.78125 66.40625 
Q 24.171875 66.40625 20.328125 58.90625 
Q 16.5 51.421875 16.5 36.375 
Q 16.5 21.390625 20.328125 13.890625 
Q 24.171875 6.390625 31.78125 6.390625 
Q 39.453125 6.390625 43.28125 13.890625 
Q 47.125 21.390625 47.125 36.375 
Q 47.125 51.421875 43.28125 58.90625 
Q 39.453125 66.40625 31.78125 66.40625 
z
M 31.78125 74.21875 
Q 44.046875 74.21875 50.515625 64.515625 
Q 56.984375 54.828125 56.984375 36.375 
Q 56.984375 17.96875 50.515625 8.265625 
Q 44.046875 -1.421875 31.78125 -1.421875 
Q 19.53125 -1.421875 13.0625 8.265625 
Q 6.59375 17.96875 6.59375 36.375 
Q 6.59375 54.828125 13.0625 64.515625 
Q 19.53125 74.21875 31.78125 74.21875 
z
" id="DejaVuSans-48"/>
       </defs>
       <use xlink:href="#DejaVuSans-8722"/>
       <use x="83.789062" xlink:href="#DejaVuSans-53"/>
       <use x="147.412109" xlink:href="#DejaVuSans-46"/>
       <use x="179.199219" xlink:href="#DejaVuSans-48"/>
      </g>
     </g>
    </g>
    <g id="xtick_2">
     <g id="line2d_2">
      <g>
       <use style="stroke:#000000;stroke-width:0.8;" x="157.173174" xlink:href="#mea4af9f9e9" y="266.938125"/>
      </g>
     </g>
     <g id="text_2">
      <!-- −4.5 -->
      <g transform="translate(145.031768 281.536563)scale(0.1 -0.1)">
       <defs>
        <path d="M 37.796875 64.3125 
L 12.890625 25.390625 
L 37.796875 25.390625 
z
M 35.203125 72.90625 
L 47.609375 72.90625 
L 47.609375 25.390625 
L 58.015625 25.390625 
L 58.015625 17.1875 
L 47.609375 17.1875 
L 47.609375 0 
L 37.796875 0 
L 37.796875 17.1875 
L 4.890625 17.1875 
L 4.890625 26.703125 
z
" id="DejaVuSans-52"/>
       </defs>
       <use xlink:href="#DejaVuSans-8722"/>
       <use x="83.789062" xlink:href="#DejaVuSans-52"/>
       <use x="147.412109" xlink:href="#DejaVuSans-46"/>
       <use x="179.199219" xlink:href="#DejaVuSans-53"/>
      </g>
     </g>
    </g>
    <g id="xtick_3">
     <g id="line2d_3">
      <g>
       <use style="stroke:#000000;stroke-width:0.8;" x="227.368242" xlink:href="#mea4af9f9e9" y="266.938125"/>
      </g>
     </g>
     <g id="text_3">
      <!-- −4.0 -->
      <g transform="translate(215.226836 281.536563)scale(0.1 -0.1)">
       <use xlink:href="#DejaVuSans-8722"/>
       <use x="83.789062" xlink:href="#DejaVuSans-52"/>
       <use x="147.412109" xlink:href="#DejaVuSans-46"/>
       <use x="179.199219" xlink:href="#DejaVuSans-48"/>
      </g>
     </g>
    </g>
    <g id="xtick_4">
     <g id="line2d_4">
      <g>
       <use style="stroke:#000000;stroke-width:0.8;" x="297.563311" xlink:href="#mea4af9f9e9" y="266.938125"/>
      </g>
     </g>
     <g id="text_4">
      <!-- −3.5 -->
      <g transform="translate(285.421904 281.536563)scale(0.1 -0.1)">
       <defs>
        <path d="M 40.578125 39.3125 
Q 47.65625 37.796875 51.625 33 
Q 55.609375 28.21875 55.609375 21.1875 
Q 55.609375 10.40625 48.1875 4.484375 
Q 40.765625 -1.421875 27.09375 -1.421875 
Q 22.515625 -1.421875 17.65625 -0.515625 
Q 12.796875 0.390625 7.625 2.203125 
L 7.625 11.71875 
Q 11.71875 9.328125 16.59375 8.109375 
Q 21.484375 6.890625 26.8125 6.890625 
Q 36.078125 6.890625 40.9375 10.546875 
Q 45.796875 14.203125 45.796875 21.1875 
Q 45.796875 27.640625 41.28125 31.265625 
Q 36.765625 34.90625 28.71875 34.90625 
L 20.21875 34.90625 
L 20.21875 43.015625 
L 29.109375 43.015625 
Q 36.375 43.015625 40.234375 45.921875 
Q 44.09375 48.828125 44.09375 54.296875 
Q 44.09375 59.90625 40.109375 62.90625 
Q 36.140625 65.921875 28.71875 65.921875 
Q 24.65625 65.921875 20.015625 65.03125 
Q 15.375 64.15625 9.8125 62.3125 
L 9.8125 71.09375 
Q 15.4375 72.65625 20.34375 73.4375 
Q 25.25 74.21875 29.59375 74.21875 
Q 40.828125 74.21875 47.359375 69.109375 
Q 53.90625 64.015625 53.90625 55.328125 
Q 53.90625 49.265625 50.4375 45.09375 
Q 46.96875 40.921875 40.578125 39.3125 
z
" id="DejaVuSans-51"/>
       </defs>
       <use xlink:href="#DejaVuSans-8722"/>
       <use x="83.789062" xlink:href="#DejaVuSans-51"/>
       <use x="147.412109" xlink:href="#DejaVuSans-46"/>
       <use x="179.199219" xlink:href="#DejaVuSans-53"/>
      </g>
     </g>
    </g>
    <g id="xtick_5">
     <g id="line2d_5">
      <g>
       <use style="stroke:#000000;stroke-width:0.8;" x="367.758379" xlink:href="#mea4af9f9e9" y="266.938125"/>
      </g>
     </g>
     <g id="text_5">
      <!-- −3.0 -->
      <g transform="translate(355.616973 281.536563)scale(0.1 -0.1)">
       <use xlink:href="#DejaVuSans-8722"/>
       <use x="83.789062" xlink:href="#DejaVuSans-51"/>
       <use x="147.412109" xlink:href="#DejaVuSans-46"/>
       <use x="179.199219" xlink:href="#DejaVuSans-48"/>
      </g>
     </g>
    </g>
    <g id="xtick_6">
     <g id="line2d_6">
      <g>
       <use style="stroke:#000000;stroke-width:0.8;" x="437.953447" xlink:href="#mea4af9f9e9" y="266.938125"/>
      </g>
     </g>
     <g id="text_6">
      <!-- −2.5 -->
      <g transform="translate(425.812041 281.536563)scale(0.1 -0.1)">
       <defs>
        <path d="M 19.1875 8.296875 
L 53.609375 8.296875 
L 53.609375 0 
L 7.328125 0 
L 7.328125 8.296875 
Q 12.9375 14.109375 22.625 23.890625 
Q 32.328125 33.6875 34.8125 36.53125 
Q 39.546875 41.84375 41.421875 45.53125 
Q 43.3125 49.21875 43.3125 52.78125 
Q 43.3125 58.59375 39.234375 62.25 
Q 35.15625 65.921875 28.609375 65.921875 
Q 23.96875 65.921875 18.8125 64.3125 
Q 13.671875 62.703125 7.8125 59.421875 
L 7.8125 69.390625 
Q 13.765625 71.78125 18.9375 73 
Q 24.125 74.21875 28.421875 74.21875 
Q 39.75 74.21875 46.484375 68.546875 
Q 53.21875 62.890625 53.21875 53.421875 
Q 53.21875 48.921875 51.53125 44.890625 
Q 49.859375 40.875 45.40625 35.40625 
Q 44.1875 33.984375 37.640625 27.21875 
Q 31.109375 20.453125 19.1875 8.296875 
z
" id="DejaVuSans-50"/>
       </defs>
       <use xlink:href="#DejaVuSans-8722"/>
       <use x="83.789062" xlink:href="#DejaVuSans-50"/>
       <use x="147.412109" xlink:href="#DejaVuSans-46"/>
       <use x="179.199219" xlink:href="#DejaVuSans-53"/>
      </g>
     </g>
    </g>
    <g id="text_7">
     <!-- log(strain) [mm/mm] -->
     <g transform="translate(214.558594 295.214687)scale(0.1 -0.1)">
      <defs>
       <path d="M 9.421875 75.984375 
L 18.40625 75.984375 
L 18.40625 0 
L 9.421875 0 
z
" id="DejaVuSans-108"/>
       <path d="M 30.609375 48.390625 
Q 23.390625 48.390625 19.1875 42.75 
Q 14.984375 37.109375 14.984375 27.296875 
Q 14.984375 17.484375 19.15625 11.84375 
Q 23.34375 6.203125 30.609375 6.203125 
Q 37.796875 6.203125 41.984375 11.859375 
Q 46.1875 17.53125 46.1875 27.296875 
Q 46.1875 37.015625 41.984375 42.703125 
Q 37.796875 48.390625 30.609375 48.390625 
z
M 30.609375 56 
Q 42.328125 56 49.015625 48.375 
Q 55.71875 40.765625 55.71875 27.296875 
Q 55.71875 13.875 49.015625 6.21875 
Q 42.328125 -1.421875 30.609375 -1.421875 
Q 18.84375 -1.421875 12.171875 6.21875 
Q 5.515625 13.875 5.515625 27.296875 
Q 5.515625 40.765625 12.171875 48.375 
Q 18.84375 56 30.609375 56 
z
" id="DejaVuSans-111"/>
       <path d="M 45.40625 27.984375 
Q 45.40625 37.75 41.375 43.109375 
Q 37.359375 48.484375 30.078125 48.484375 
Q 22.859375 48.484375 18.828125 43.109375 
Q 14.796875 37.75 14.796875 27.984375 
Q 14.796875 18.265625 18.828125 12.890625 
Q 22.859375 7.515625 30.078125 7.515625 
Q 37.359375 7.515625 41.375 12.890625 
Q 45.40625 18.265625 45.40625 27.984375 
z
M 54.390625 6.78125 
Q 54.390625 -7.171875 48.1875 -13.984375 
Q 42 -20.796875 29.203125 -20.796875 
Q 24.46875 -20.796875 20.265625 -20.09375 
Q 16.0625 -19.390625 12.109375 -17.921875 
L 12.109375 -9.1875 
Q 16.0625 -11.328125 19.921875 -12.34375 
Q 23.78125 -13.375 27.78125 -13.375 
Q 36.625 -13.375 41.015625 -8.765625 
Q 45.40625 -4.15625 45.40625 5.171875 
L 45.40625 9.625 
Q 42.625 4.78125 38.28125 2.390625 
Q 33.9375 0 27.875 0 
Q 17.828125 0 11.671875 7.65625 
Q 5.515625 15.328125 5.515625 27.984375 
Q 5.515625 40.671875 11.671875 48.328125 
Q 17.828125 56 27.875 56 
Q 33.9375 56 38.28125 53.609375 
Q 42.625 51.21875 45.40625 46.390625 
L 45.40625 54.6875 
L 54.390625 54.6875 
z
" id="DejaVuSans-103"/>
       <path d="M 31 75.875 
Q 24.46875 64.65625 21.28125 53.65625 
Q 18.109375 42.671875 18.109375 31.390625 
Q 18.109375 20.125 21.3125 9.0625 
Q 24.515625 -2 31 -13.1875 
L 23.1875 -13.1875 
Q 15.875 -1.703125 12.234375 9.375 
Q 8.59375 20.453125 8.59375 31.390625 
Q 8.59375 42.28125 12.203125 53.3125 
Q 15.828125 64.359375 23.1875 75.875 
z
" id="DejaVuSans-40"/>
       <path d="M 44.28125 53.078125 
L 44.28125 44.578125 
Q 40.484375 46.53125 36.375 47.5 
Q 32.28125 48.484375 27.875 48.484375 
Q 21.1875 48.484375 17.84375 46.4375 
Q 14.5 44.390625 14.5 40.28125 
Q 14.5 37.15625 16.890625 35.375 
Q 19.28125 33.59375 26.515625 31.984375 
L 29.59375 31.296875 
Q 39.15625 29.25 43.1875 25.515625 
Q 47.21875 21.78125 47.21875 15.09375 
Q 47.21875 7.46875 41.1875 3.015625 
Q 35.15625 -1.421875 24.609375 -1.421875 
Q 20.21875 -1.421875 15.453125 -0.5625 
Q 10.6875 0.296875 5.421875 2 
L 5.421875 11.28125 
Q 10.40625 8.6875 15.234375 7.390625 
Q 20.0625 6.109375 24.8125 6.109375 
Q 31.15625 6.109375 34.5625 8.28125 
Q 37.984375 10.453125 37.984375 14.40625 
Q 37.984375 18.0625 35.515625 20.015625 
Q 33.0625 21.96875 24.703125 23.78125 
L 21.578125 24.515625 
Q 13.234375 26.265625 9.515625 29.90625 
Q 5.8125 33.546875 5.8125 39.890625 
Q 5.8125 47.609375 11.28125 51.796875 
Q 16.75 56 26.8125 56 
Q 31.78125 56 36.171875 55.265625 
Q 40.578125 54.546875 44.28125 53.078125 
z
" id="DejaVuSans-115"/>
       <path d="M 18.3125 70.21875 
L 18.3125 54.6875 
L 36.8125 54.6875 
L 36.8125 47.703125 
L 18.3125 47.703125 
L 18.3125 18.015625 
Q 18.3125 11.328125 20.140625 9.421875 
Q 21.96875 7.515625 27.59375 7.515625 
L 36.8125 7.515625 
L 36.8125 0 
L 27.59375 0 
Q 17.1875 0 13.234375 3.875 
Q 9.28125 7.765625 9.28125 18.015625 
L 9.28125 47.703125 
L 2.6875 47.703125 
L 2.6875 54.6875 
L 9.28125 54.6875 
L 9.28125 70.21875 
z
" id="DejaVuSans-116"/>
       <path d="M 41.109375 46.296875 
Q 39.59375 47.171875 37.8125 47.578125 
Q 36.03125 48 33.890625 48 
Q 26.265625 48 22.1875 43.046875 
Q 18.109375 38.09375 18.109375 28.8125 
L 18.109375 0 
L 9.078125 0 
L 9.078125 54.6875 
L 18.109375 54.6875 
L 18.109375 46.1875 
Q 20.953125 51.171875 25.484375 53.578125 
Q 30.03125 56 36.53125 56 
Q 37.453125 56 38.578125 55.875 
Q 39.703125 55.765625 41.0625 55.515625 
z
" id="DejaVuSans-114"/>
       <path d="M 34.28125 27.484375 
Q 23.390625 27.484375 19.1875 25 
Q 14.984375 22.515625 14.984375 16.5 
Q 14.984375 11.71875 18.140625 8.90625 
Q 21.296875 6.109375 26.703125 6.109375 
Q 34.1875 6.109375 38.703125 11.40625 
Q 43.21875 16.703125 43.21875 25.484375 
L 43.21875 27.484375 
z
M 52.203125 31.203125 
L 52.203125 0 
L 43.21875 0 
L 43.21875 8.296875 
Q 40.140625 3.328125 35.546875 0.953125 
Q 30.953125 -1.421875 24.3125 -1.421875 
Q 15.921875 -1.421875 10.953125 3.296875 
Q 6 8.015625 6 15.921875 
Q 6 25.140625 12.171875 29.828125 
Q 18.359375 34.515625 30.609375 34.515625 
L 43.21875 34.515625 
L 43.21875 35.40625 
Q 43.21875 41.609375 39.140625 45 
Q 35.0625 48.390625 27.6875 48.390625 
Q 23 48.390625 18.546875 47.265625 
Q 14.109375 46.140625 10.015625 43.890625 
L 10.015625 52.203125 
Q 14.9375 54.109375 19.578125 55.046875 
Q 24.21875 56 28.609375 56 
Q 40.484375 56 46.34375 49.84375 
Q 52.203125 43.703125 52.203125 31.203125 
z
" id="DejaVuSans-97"/>
       <path d="M 9.421875 54.6875 
L 18.40625 54.6875 
L 18.40625 0 
L 9.421875 0 
z
M 9.421875 75.984375 
L 18.40625 75.984375 
L 18.40625 64.59375 
L 9.421875 64.59375 
z
" id="DejaVuSans-105"/>
       <path d="M 54.890625 33.015625 
L 54.890625 0 
L 45.90625 0 
L 45.90625 32.71875 
Q 45.90625 40.484375 42.875 44.328125 
Q 39.84375 48.1875 33.796875 48.1875 
Q 26.515625 48.1875 22.3125 43.546875 
Q 18.109375 38.921875 18.109375 30.90625 
L 18.109375 0 
L 9.078125 0 
L 9.078125 54.6875 
L 18.109375 54.6875 
L 18.109375 46.1875 
Q 21.34375 51.125 25.703125 53.5625 
Q 30.078125 56 35.796875 56 
Q 45.21875 56 50.046875 50.171875 
Q 54.890625 44.34375 54.890625 33.015625 
z
" id="DejaVuSans-110"/>
       <path d="M 8.015625 75.875 
L 15.828125 75.875 
Q 23.140625 64.359375 26.78125 53.3125 
Q 30.421875 42.28125 30.421875 31.390625 
Q 30.421875 20.453125 26.78125 9.375 
Q 23.140625 -1.703125 15.828125 -13.1875 
L 8.015625 -13.1875 
Q 14.5 -2 17.703125 9.0625 
Q 20.90625 20.125 20.90625 31.390625 
Q 20.90625 42.671875 17.703125 53.65625 
Q 14.5 64.65625 8.015625 75.875 
z
" id="DejaVuSans-41"/>
       <path id="DejaVuSans-32"/>
       <path d="M 8.59375 75.984375 
L 29.296875 75.984375 
L 29.296875 69 
L 17.578125 69 
L 17.578125 -6.203125 
L 29.296875 -6.203125 
L 29.296875 -13.1875 
L 8.59375 -13.1875 
z
" id="DejaVuSans-91"/>
       <path d="M 52 44.1875 
Q 55.375 50.25 60.0625 53.125 
Q 64.75 56 71.09375 56 
Q 79.640625 56 84.28125 50.015625 
Q 88.921875 44.046875 88.921875 33.015625 
L 88.921875 0 
L 79.890625 0 
L 79.890625 32.71875 
Q 79.890625 40.578125 77.09375 44.375 
Q 74.3125 48.1875 68.609375 48.1875 
Q 61.625 48.1875 57.5625 43.546875 
Q 53.515625 38.921875 53.515625 30.90625 
L 53.515625 0 
L 44.484375 0 
L 44.484375 32.71875 
Q 44.484375 40.625 41.703125 44.40625 
Q 38.921875 48.1875 33.109375 48.1875 
Q 26.21875 48.1875 22.15625 43.53125 
Q 18.109375 38.875 18.109375 30.90625 
L 18.109375 0 
L 9.078125 0 
L 9.078125 54.6875 
L 18.109375 54.6875 
L 18.109375 46.1875 
Q 21.1875 51.21875 25.484375 53.609375 
Q 29.78125 56 35.6875 56 
Q 41.65625 56 45.828125 52.96875 
Q 50 49.953125 52 44.1875 
z
" id="DejaVuSans-109"/>
       <path d="M 25.390625 72.90625 
L 33.6875 72.90625 
L 8.296875 -9.28125 
L 0 -9.28125 
z
" id="DejaVuSans-47"/>
       <path d="M 30.421875 75.984375 
L 30.421875 -13.1875 
L 9.71875 -13.1875 
L 9.71875 -6.203125 
L 21.390625 -6.203125 
L 21.390625 69 
L 9.71875 69 
L 9.71875 75.984375 
z
" id="DejaVuSans-93"/>
      </defs>
      <use xlink:href="#DejaVuSans-108"/>
      <use x="27.783203" xlink:href="#DejaVuSans-111"/>
      <use x="88.964844" xlink:href="#DejaVuSans-103"/>
      <use x="152.441406" xlink:href="#DejaVuSans-40"/>
      <use x="191.455078" xlink:href="#DejaVuSans-115"/>
      <use x="243.554688" xlink:href="#DejaVuSans-116"/>
      <use x="282.763672" xlink:href="#DejaVuSans-114"/>
      <use x="323.876953" xlink:href="#DejaVuSans-97"/>
      <use x="385.15625" xlink:href="#DejaVuSans-105"/>
      <use x="412.939453" xlink:href="#DejaVuSans-110"/>
      <use x="476.318359" xlink:href="#DejaVuSans-41"/>
      <use x="515.332031" xlink:href="#DejaVuSans-32"/>
      <use x="547.119141" xlink:href="#DejaVuSans-91"/>
      <use x="586.132812" xlink:href="#DejaVuSans-109"/>
      <use x="683.544922" xlink:href="#DejaVuSans-109"/>
      <use x="780.957031" xlink:href="#DejaVuSans-47"/>
      <use x="814.648438" xlink:href="#DejaVuSans-109"/>
      <use x="912.060547" xlink:href="#DejaVuSans-109"/>
      <use x="1009.472656" xlink:href="#DejaVuSans-93"/>
     </g>
    </g>
   </g>
   <g id="matplotlib.axis_2">
    <g id="ytick_1">
     <g id="line2d_7">
      <defs>
       <path d="M 0 0 
L -3.5 0 
" id="m406cb65da0" style="stroke:#000000;stroke-width:0.8;"/>
      </defs>
      <g>
       <use style="stroke:#000000;stroke-width:0.8;" x="43.78125" xlink:href="#m406cb65da0" y="235.686494"/>
      </g>
     </g>
     <g id="text_8">
      <!-- 6.4 -->
      <g transform="translate(20.878125 239.485713)scale(0.1 -0.1)">
       <defs>
        <path d="M 33.015625 40.375 
Q 26.375 40.375 22.484375 35.828125 
Q 18.609375 31.296875 18.609375 23.390625 
Q 18.609375 15.53125 22.484375 10.953125 
Q 26.375 6.390625 33.015625 6.390625 
Q 39.65625 6.390625 43.53125 10.953125 
Q 47.40625 15.53125 47.40625 23.390625 
Q 47.40625 31.296875 43.53125 35.828125 
Q 39.65625 40.375 33.015625 40.375 
z
M 52.59375 71.296875 
L 52.59375 62.3125 
Q 48.875 64.0625 45.09375 64.984375 
Q 41.3125 65.921875 37.59375 65.921875 
Q 27.828125 65.921875 22.671875 59.328125 
Q 17.53125 52.734375 16.796875 39.40625 
Q 19.671875 43.65625 24.015625 45.921875 
Q 28.375 48.1875 33.59375 48.1875 
Q 44.578125 48.1875 50.953125 41.515625 
Q 57.328125 34.859375 57.328125 23.390625 
Q 57.328125 12.15625 50.6875 5.359375 
Q 44.046875 -1.421875 33.015625 -1.421875 
Q 20.359375 -1.421875 13.671875 8.265625 
Q 6.984375 17.96875 6.984375 36.375 
Q 6.984375 53.65625 15.1875 63.9375 
Q 23.390625 74.21875 37.203125 74.21875 
Q 40.921875 74.21875 44.703125 73.484375 
Q 48.484375 72.75 52.59375 71.296875 
z
" id="DejaVuSans-54"/>
       </defs>
       <use xlink:href="#DejaVuSans-54"/>
       <use x="63.623047" xlink:href="#DejaVuSans-46"/>
       <use x="95.410156" xlink:href="#DejaVuSans-52"/>
      </g>
     </g>
    </g>
    <g id="ytick_2">
     <g id="line2d_8">
      <g>
       <use style="stroke:#000000;stroke-width:0.8;" x="43.78125" xlink:href="#m406cb65da0" y="199.879536"/>
      </g>
     </g>
     <g id="text_9">
      <!-- 6.5 -->
      <g transform="translate(20.878125 203.678755)scale(0.1 -0.1)">
       <use xlink:href="#DejaVuSans-54"/>
       <use x="63.623047" xlink:href="#DejaVuSans-46"/>
       <use x="95.410156" xlink:href="#DejaVuSans-53"/>
      </g>
     </g>
    </g>
    <g id="ytick_3">
     <g id="line2d_9">
      <g>
       <use style="stroke:#000000;stroke-width:0.8;" x="43.78125" xlink:href="#m406cb65da0" y="164.072579"/>
      </g>
     </g>
     <g id="text_10">
      <!-- 6.6 -->
      <g transform="translate(20.878125 167.871797)scale(0.1 -0.1)">
       <use xlink:href="#DejaVuSans-54"/>
       <use x="63.623047" xlink:href="#DejaVuSans-46"/>
       <use x="95.410156" xlink:href="#DejaVuSans-54"/>
      </g>
     </g>
    </g>
    <g id="ytick_4">
     <g id="line2d_10">
      <g>
       <use style="stroke:#000000;stroke-width:0.8;" x="43.78125" xlink:href="#m406cb65da0" y="128.265621"/>
      </g>
     </g>
     <g id="text_11">
      <!-- 6.7 -->
      <g transform="translate(20.878125 132.06484)scale(0.1 -0.1)">
       <defs>
        <path d="M 8.203125 72.90625 
L 55.078125 72.90625 
L 55.078125 68.703125 
L 28.609375 0 
L 18.3125 0 
L 43.21875 64.59375 
L 8.203125 64.59375 
z
" id="DejaVuSans-55"/>
       </defs>
       <use xlink:href="#DejaVuSans-54"/>
       <use x="63.623047" xlink:href="#DejaVuSans-46"/>
       <use x="95.410156" xlink:href="#DejaVuSans-55"/>
      </g>
     </g>
    </g>
    <g id="ytick_5">
     <g id="line2d_11">
      <g>
       <use style="stroke:#000000;stroke-width:0.8;" x="43.78125" xlink:href="#m406cb65da0" y="92.458663"/>
      </g>
     </g>
     <g id="text_12">
      <!-- 6.8 -->
      <g transform="translate(20.878125 96.257882)scale(0.1 -0.1)">
       <defs>
        <path d="M 31.78125 34.625 
Q 24.75 34.625 20.71875 30.859375 
Q 16.703125 27.09375 16.703125 20.515625 
Q 16.703125 13.921875 20.71875 10.15625 
Q 24.75 6.390625 31.78125 6.390625 
Q 38.8125 6.390625 42.859375 10.171875 
Q 46.921875 13.96875 46.921875 20.515625 
Q 46.921875 27.09375 42.890625 30.859375 
Q 38.875 34.625 31.78125 34.625 
z
M 21.921875 38.8125 
Q 15.578125 40.375 12.03125 44.71875 
Q 8.5 49.078125 8.5 55.328125 
Q 8.5 64.0625 14.71875 69.140625 
Q 20.953125 74.21875 31.78125 74.21875 
Q 42.671875 74.21875 48.875 69.140625 
Q 55.078125 64.0625 55.078125 55.328125 
Q 55.078125 49.078125 51.53125 44.71875 
Q 48 40.375 41.703125 38.8125 
Q 48.828125 37.15625 52.796875 32.3125 
Q 56.78125 27.484375 56.78125 20.515625 
Q 56.78125 9.90625 50.3125 4.234375 
Q 43.84375 -1.421875 31.78125 -1.421875 
Q 19.734375 -1.421875 13.25 4.234375 
Q 6.78125 9.90625 6.78125 20.515625 
Q 6.78125 27.484375 10.78125 32.3125 
Q 14.796875 37.15625 21.921875 38.8125 
z
M 18.3125 54.390625 
Q 18.3125 48.734375 21.84375 45.5625 
Q 25.390625 42.390625 31.78125 42.390625 
Q 38.140625 42.390625 41.71875 45.5625 
Q 45.3125 48.734375 45.3125 54.390625 
Q 45.3125 60.0625 41.71875 63.234375 
Q 38.140625 66.40625 31.78125 66.40625 
Q 25.390625 66.40625 21.84375 63.234375 
Q 18.3125 60.0625 18.3125 54.390625 
z
" id="DejaVuSans-56"/>
       </defs>
       <use xlink:href="#DejaVuSans-54"/>
       <use x="63.623047" xlink:href="#DejaVuSans-46"/>
       <use x="95.410156" xlink:href="#DejaVuSans-56"/>
      </g>
     </g>
    </g>
    <g id="ytick_6">
     <g id="line2d_12">
      <g>
       <use style="stroke:#000000;stroke-width:0.8;" x="43.78125" xlink:href="#m406cb65da0" y="56.651706"/>
      </g>
     </g>
     <g id="text_13">
      <!-- 6.9 -->
      <g transform="translate(20.878125 60.450925)scale(0.1 -0.1)">
       <defs>
        <path d="M 10.984375 1.515625 
L 10.984375 10.5 
Q 14.703125 8.734375 18.5 7.8125 
Q 22.3125 6.890625 25.984375 6.890625 
Q 35.75 6.890625 40.890625 13.453125 
Q 46.046875 20.015625 46.78125 33.40625 
Q 43.953125 29.203125 39.59375 26.953125 
Q 35.25 24.703125 29.984375 24.703125 
Q 19.046875 24.703125 12.671875 31.3125 
Q 6.296875 37.9375 6.296875 49.421875 
Q 6.296875 60.640625 12.9375 67.421875 
Q 19.578125 74.21875 30.609375 74.21875 
Q 43.265625 74.21875 49.921875 64.515625 
Q 56.59375 54.828125 56.59375 36.375 
Q 56.59375 19.140625 48.40625 8.859375 
Q 40.234375 -1.421875 26.421875 -1.421875 
Q 22.703125 -1.421875 18.890625 -0.6875 
Q 15.09375 0.046875 10.984375 1.515625 
z
M 30.609375 32.421875 
Q 37.25 32.421875 41.125 36.953125 
Q 45.015625 41.5 45.015625 49.421875 
Q 45.015625 57.28125 41.125 61.84375 
Q 37.25 66.40625 30.609375 66.40625 
Q 23.96875 66.40625 20.09375 61.84375 
Q 16.21875 57.28125 16.21875 49.421875 
Q 16.21875 41.5 20.09375 36.953125 
Q 23.96875 32.421875 30.609375 32.421875 
z
" id="DejaVuSans-57"/>
       </defs>
       <use xlink:href="#DejaVuSans-54"/>
       <use x="63.623047" xlink:href="#DejaVuSans-46"/>
       <use x="95.410156" xlink:href="#DejaVuSans-57"/>
      </g>
     </g>
    </g>
    <g id="text_14">
     <!-- log(stress) [MPa] -->
     <g transform="translate(14.798438 186.604688)rotate(-90)scale(0.1 -0.1)">
      <defs>
       <path d="M 56.203125 29.59375 
L 56.203125 25.203125 
L 14.890625 25.203125 
Q 15.484375 15.921875 20.484375 11.0625 
Q 25.484375 6.203125 34.421875 6.203125 
Q 39.59375 6.203125 44.453125 7.46875 
Q 49.3125 8.734375 54.109375 11.28125 
L 54.109375 2.78125 
Q 49.265625 0.734375 44.1875 -0.34375 
Q 39.109375 -1.421875 33.890625 -1.421875 
Q 20.796875 -1.421875 13.15625 6.1875 
Q 5.515625 13.8125 5.515625 26.8125 
Q 5.515625 40.234375 12.765625 48.109375 
Q 20.015625 56 32.328125 56 
Q 43.359375 56 49.78125 48.890625 
Q 56.203125 41.796875 56.203125 29.59375 
z
M 47.21875 32.234375 
Q 47.125 39.59375 43.09375 43.984375 
Q 39.0625 48.390625 32.421875 48.390625 
Q 24.90625 48.390625 20.390625 44.140625 
Q 15.875 39.890625 15.1875 32.171875 
z
" id="DejaVuSans-101"/>
       <path d="M 9.8125 72.90625 
L 24.515625 72.90625 
L 43.109375 23.296875 
L 61.8125 72.90625 
L 76.515625 72.90625 
L 76.515625 0 
L 66.890625 0 
L 66.890625 64.015625 
L 48.09375 14.015625 
L 38.1875 14.015625 
L 19.390625 64.015625 
L 19.390625 0 
L 9.8125 0 
z
" id="DejaVuSans-77"/>
       <path d="M 19.671875 64.796875 
L 19.671875 37.40625 
L 32.078125 37.40625 
Q 38.96875 37.40625 42.71875 40.96875 
Q 46.484375 44.53125 46.484375 51.125 
Q 46.484375 57.671875 42.71875 61.234375 
Q 38.96875 64.796875 32.078125 64.796875 
z
M 9.8125 72.90625 
L 32.078125 72.90625 
Q 44.34375 72.90625 50.609375 67.359375 
Q 56.890625 61.8125 56.890625 51.125 
Q 56.890625 40.328125 50.609375 34.8125 
Q 44.34375 29.296875 32.078125 29.296875 
L 19.671875 29.296875 
L 19.671875 0 
L 9.8125 0 
z
" id="DejaVuSans-80"/>
      </defs>
      <use xlink:href="#DejaVuSans-108"/>
      <use x="27.783203" xlink:href="#DejaVuSans-111"/>
      <use x="88.964844" xlink:href="#DejaVuSans-103"/>
      <use x="152.441406" xlink:href="#DejaVuSans-40"/>
      <use x="191.455078" xlink:href="#DejaVuSans-115"/>
      <use x="243.554688" xlink:href="#DejaVuSans-116"/>
      <use x="282.763672" xlink:href="#DejaVuSans-114"/>
      <use x="321.626953" xlink:href="#DejaVuSans-101"/>
      <use x="383.150391" xlink:href="#DejaVuSans-115"/>
      <use x="435.25" xlink:href="#DejaVuSans-115"/>
      <use x="487.349609" xlink:href="#DejaVuSans-41"/>
      <use x="526.363281" xlink:href="#DejaVuSans-32"/>
      <use x="558.150391" xlink:href="#DejaVuSans-91"/>
      <use x="597.164062" xlink:href="#DejaVuSans-77"/>
      <use x="683.443359" xlink:href="#DejaVuSans-80"/>
      <use x="739.246094" xlink:href="#DejaVuSans-97"/>
      <use x="800.525391" xlink:href="#DejaVuSans-93"/>
     </g>
    </g>
   </g>
   <g id="line2d_13">
    <path clip-path="url(#pa8b40fd4c8)" d="M 64.072159 255.819034 
L 64.072159 255.673802 
L 64.559076 255.462024 
L 64.559076 255.382602 
L 64.801899 255.237416 
L 64.801899 255.158043 
L 65.0443 255.015256 
L 65.0443 254.948497 
L 65.527843 254.723412 
L 65.527843 254.655628 
L 66.009717 254.416554 
L 66.009717 254.265531 
L 66.250032 254.109128 
L 66.250032 253.962534 
L 66.968503 253.663919 
L 66.968503 253.522768 
L 67.207174 253.38367 
L 67.207174 253.305813 
L 67.683295 253.067137 
L 67.683295 252.995483 
L 67.920748 252.842097 
L 67.920748 252.771943 
L 68.394445 252.545782 
L 68.394445 252.411182 
L 68.630692 252.2606 
L 68.630692 252.190251 
L 69.101989 251.953466 
L 69.101989 251.877709 
L 69.571701 251.664531 
L 69.571701 251.592194 
L 70.039836 251.368951 
L 70.039836 251.220977 
L 70.273317 251.074571 
L 70.273317 251.007236 
L 70.506407 250.852184 
L 70.506407 250.779172 
L 70.971423 250.567642 
L 70.971423 250.492478 
L 71.434894 250.263377 
L 71.434894 250.123116 
L 71.896832 249.913435 
L 71.896832 249.839202 
L 72.357245 249.618289 
L 72.357245 249.542174 
L 72.586883 249.399725 
L 72.586883 249.333263 
L 72.816144 249.180314 
L 72.816144 249.038337 
L 73.273539 248.823879 
L 73.273539 248.752481 
L 73.72944 248.537198 
L 73.72944 248.46495 
L 74.183855 248.254065 
L 74.183855 248.182517 
L 74.636796 247.956777 
L 74.636796 247.742115 
L 75.313462 247.450889 
L 75.313462 247.378812 
L 75.762756 247.152464 
L 75.762756 247.081236 
L 75.986862 246.942214 
L 75.986862 246.806795 
L 76.657028 246.509541 
L 76.657028 246.366115 
L 77.102023 246.14835 
L 77.102023 246.074722 
L 77.545604 245.850731 
L 77.545604 245.785249 
L 77.987778 245.573714 
L 77.987778 245.499525 
L 78.428556 245.280455 
L 78.428556 245.204112 
L 78.648423 245.05175 
L 78.648423 244.904655 
L 79.305955 244.614472 
L 79.305955 244.484182 
L 79.960401 244.193043 
L 79.960401 244.121272 
L 80.177869 243.980043 
L 80.177869 243.914631 
L 80.611792 243.702343 
L 80.611792 243.630252 
L 81.044368 243.414648 
L 81.044368 243.34071 
L 81.260155 243.198436 
L 81.260155 243.12637 
L 81.905518 242.827472 
L 81.905518 242.757268 
L 82.334107 242.552634 
L 82.334107 242.484791 
L 82.547908 242.343839 
L 82.547908 242.270154 
L 82.974531 242.039473 
L 82.974531 241.97426 
L 83.612029 241.692994 
L 83.612029 241.625643 
L 84.035414 241.408649 
L 84.035414 241.331294 
L 84.246625 241.189807 
L 84.246625 241.120068 
L 84.878348 240.836017 
L 84.878348 240.770603 
L 85.297912 240.549471 
L 85.297912 240.47518 
L 85.507221 240.325095 
L 85.507221 240.255333 
L 86.133272 239.973846 
L 86.133272 239.906629 
L 86.549083 239.693462 
L 86.549083 239.626853 
L 86.963658 239.410297 
L 86.963658 239.339709 
L 87.377004 239.133211 
L 87.377004 239.060904 
L 87.994735 238.76872 
L 87.994735 238.626958 
L 88.405041 238.407145 
L 88.405041 238.33579 
L 89.018245 238.048545 
L 89.018245 237.977591 
L 89.628763 237.681422 
L 89.628763 237.546402 
L 90.438652 237.205473 
L 90.438652 237.138724 
L 90.841839 236.924349 
L 90.841839 236.786925 
L 91.243863 236.572828 
L 91.243863 236.509454 
L 91.844735 236.227455 
L 91.844735 236.156383 
L 92.443027 235.866378 
L 92.443027 235.726862 
L 93.236778 235.364965 
L 93.236778 235.296573 
L 93.631965 235.078897 
L 93.631965 235.011796 
L 94.222652 234.728275 
L 94.222652 234.663138 
L 94.615058 234.443746 
L 94.615058 234.378803 
L 95.006363 234.168674 
L 95.006363 234.103308 
L 95.396572 233.89301 
L 95.396572 233.826638 
L 95.979845 233.547664 
L 95.979845 233.474666 
L 96.367342 233.26322 
L 96.367342 233.198997 
L 96.946575 232.922371 
L 96.946575 232.854538 
L 97.331397 232.639918 
L 97.331397 232.570332 
L 97.71516 232.35272 
L 97.71516 232.286874 
L 98.479531 231.938353 
L 98.479531 231.867338 
L 98.86015 231.655295 
L 98.86015 231.580905 
L 99.807174 231.098518 
L 99.807174 231.033368 
L 99.995809 230.89764 
L 99.995809 230.822605 
L 100.372314 230.622252 
L 100.372314 230.557554 
L 101.309152 230.137436 
L 101.309152 230.066478 
L 101.495766 229.926059 
L 101.495766 229.862449 
L 102.425107 229.438811 
L 102.425107 229.305552 
L 102.97975 229.020947 
L 102.97975 228.953151 
L 103.715857 228.607021 
L 103.715857 228.540229 
L 104.082458 228.326268 
L 104.082458 228.262722 
L 104.630556 227.991564 
L 104.630556 227.926995 
L 105.176506 227.656291 
L 105.176506 227.592537 
L 106.081696 227.173851 
L 106.081696 227.10425 
L 106.26203 226.972239 
L 106.26203 226.910528 
L 106.801637 226.627121 
L 106.801637 226.565117 
L 107.517877 226.21482 
L 107.517877 226.082361 
L 108.408028 225.669301 
L 108.408028 225.60151 
L 108.762502 225.393523 
L 108.762502 225.327385 
L 109.468755 224.981623 
L 109.468755 224.920388 
L 109.996105 224.641854 
L 109.996105 224.5746 
L 110.870608 224.170204 
L 110.870608 224.108145 
L 111.218878 223.910141 
L 111.218878 223.839945 
L 111.566279 223.642574 
L 111.566279 223.579155 
L 112.085761 223.311423 
L 112.085761 223.247244 
L 112.431009 223.051521 
L 112.431009 222.984527 
L 113.290403 222.586274 
L 113.290403 222.515582 
L 113.632681 222.321122 
L 113.632681 222.25916 
L 114.654496 221.786628 
L 114.654496 221.717572 
L 114.993442 221.499932 
L 114.993442 221.433287 
L 115.837214 221.016625 
L 115.837214 220.946555 
L 116.675903 220.532905 
L 116.675903 220.464186 
L 117.009969 220.256549 
L 117.009969 220.186272 
L 117.841645 219.779984 
L 117.841645 219.717428 
L 118.172929 219.505264 
L 118.172929 219.443105 
L 119.162077 218.969766 
L 119.162077 218.90508 
L 119.817627 218.576609 
L 119.817627 218.515411 
L 120.30727 218.248135 
L 120.30727 218.176661 
L 121.119535 217.770212 
L 121.119535 217.709387 
L 121.604629 217.435397 
L 121.604629 217.368538 
L 122.248802 217.028054 
L 122.248802 216.96624 
L 123.209505 216.435469 
L 123.209505 216.371041 
L 124.322007 215.786111 
L 124.322007 215.725644 
L 124.638239 215.526579 
L 124.638239 215.465293 
L 125.582643 215.001654 
L 125.582643 214.87646 
L 126.676409 214.298645 
L 126.676409 214.230448 
L 127.297579 213.90109 
L 127.297579 213.840726 
L 127.761644 213.639983 
L 127.761644 213.576212 
L 128.685155 213.121835 
L 128.685155 213.060013 
L 129.144622 212.798717 
L 129.144622 212.738908 
L 129.602577 212.480194 
L 129.602577 212.42078 
L 130.513988 211.959139 
L 130.513988 211.894594 
L 131.268963 211.503125 
L 131.268963 211.442531 
L 131.870006 211.105985 
L 131.870006 211.041756 
L 132.617676 210.650327 
L 132.617676 210.589087 
L 133.657708 209.987722 
L 133.657708 209.926044 
L 134.836871 209.277306 
L 134.836871 209.217787 
L 135.714727 208.757475 
L 135.714727 208.696541 
L 136.731938 208.109844 
L 136.731938 208.042537 
L 138.028941 207.328307 
L 138.028941 207.264931 
L 138.744305 206.875379 
L 138.744305 206.812722 
L 139.597911 206.366419 
L 139.597911 206.300101 
L 140.587205 205.730259 
L 140.587205 205.663584 
L 142.405995 204.689069 
L 142.405995 204.62086 
L 143.513535 203.978812 
L 143.513535 203.920401 
L 144.338436 203.475266 
L 144.338436 203.412507 
L 145.022134 203.030122 
L 145.022134 202.971728 
L 146.109102 202.396231 
L 146.109102 202.330679 
L 147.053274 201.821478 
L 147.053274 201.763365 
L 147.857489 201.324876 
L 147.857489 201.261412 
L 148.789895 200.754058 
L 148.789895 200.69122 
L 150.373889 199.794533 
L 150.373889 199.73259 
L 151.419939 199.10385 
L 151.419939 199.042021 
L 152.845516 198.28332 
L 152.845516 198.225954 
L 153.4887 197.854244 
L 153.4887 197.792588 
L 154.638978 197.158401 
L 154.638978 197.097026 
L 156.409574 196.086345 
L 156.409574 196.027639 
L 158.157876 195.037106 
L 158.157876 194.973317 
L 159.02384 194.420267 
L 160.617867 193.476105 
L 162.314285 192.469479 
L 162.314285 192.40717 
L 163.990217 191.468432 
L 163.990217 191.404826 
L 165.057011 190.783342 
L 165.057011 190.726595 
L 167.166306 189.48859 
L 169.929721 187.814988 
L 169.929721 187.758202 
L 171.966742 186.582561 
L 171.966742 186.519165 
L 172.974141 185.912808 
L 172.974141 185.854131 
L 173.530661 185.604308 
L 175.186942 184.616956 
L 175.29666 184.489433 
L 177.79651 182.956748 
L 177.79651 182.899766 
L 178.334041 182.65185 
L 180.674718 181.252627 
L 180.780179 181.128797 
L 182.872713 179.86364 
L 182.976514 179.741226 
L 188.069853 176.676289 
L 199.395548 169.580368 
L 200.405583 168.989504 
L 200.771047 168.756027 
L 205.082892 166.068721 
L 205.436215 165.834674 
L 207.276486 164.712664 
L 210.290171 162.793381 
L 210.545454 162.61382 
L 211.561894 161.971212 
L 212.067323 161.678279 
L 215.882025 159.215458 
L 216.371914 158.928861 
L 217.750566 158.00033 
L 218.153446 157.826951 
L 218.233881 157.717342 
L 219.753305 156.747882 
L 220.071063 156.517277 
L 221.098752 155.881301 
L 221.727392 155.52943 
L 223.441527 154.374969 
L 223.905345 154.081853 
L 225.134622 153.28394 
L 225.440236 153.056663 
L 226.125402 152.650543 
L 227.485605 151.740276 
L 227.93604 151.452237 
L 229.649199 150.265466 
L 230.09263 150.035653 
L 230.828526 149.524901 
L 231.268184 149.296976 
L 232.143315 148.729822 
L 232.433795 148.508447 
L 233.157325 148.00097 
L 233.589626 147.774705 
L 233.589626 147.719168 
L 234.307127 147.317923 
L 235.376419 146.586519 
L 235.801822 146.305241 
L 235.872595 146.197029 
L 236.719044 145.739972 
L 237.700037 145.062692 
L 237.979041 144.889527 
L 238.327004 144.661963 
L 243.37657 143.003719 
L 244.909013 142.412866 
L 245.833513 142.15648 
L 246.75184 141.843858 
L 250.428672 140.577935 
L 251.569634 140.163705 
L 253.637104 139.538319 
L 253.94766 139.362731 
L 254.690142 139.115513 
L 255.367242 138.871465 
L 256.589844 138.44084 
L 260.844199 136.919692 
L 261.138888 136.747375 
L 265.940446 134.992817 
L 266.677498 134.698784 
L 267.80374 134.275978 
L 268.642389 133.97197 
L 276.495087 130.972375 
L 277.491469 130.55905 
L 286.342576 126.977226 
L 286.391542 126.924687 
L 287.075227 126.676498 
L 287.561486 126.493033 
L 288.528841 126.127812 
L 289.297819 125.776053 
L 290.300574 125.358984 
L 290.538243 125.193527 
L 292.096563 124.582854 
L 292.284247 124.470962 
L 292.939113 124.220474 
L 293.358444 124.042193 
L 294.285701 123.680555 
L 295.068943 123.327465 
L 296.121511 122.854022 
L 310.432035 116.552174 
L 310.800875 116.378931 
L 311.77958 115.956348 
L 312.266302 115.722819 
L 313.595861 115.129177 
L 314.19593 114.837229 
L 315.031596 114.479064 
L 315.427731 114.255965 
L 316.098519 113.956582 
L 320.398686 111.980821 
L 321.310791 111.519343 
L 321.651254 111.347582 
L 322.517461 110.977181 
L 322.85491 110.757174 
L 323.601801 110.452245 
L 326.074294 109.267221 
L 327.094346 108.793392 
L 327.348162 108.626761 
L 328.034702 108.325035 
L 330.180131 107.325583 
L 330.640522 107.095156 
L 332.152282 106.337468 
L 332.536311 106.159052 
L 335.160194 104.860808 
L 335.569872 104.679133 
L 338.035649 103.452646 
L 338.40333 103.272869 
L 340.522915 102.212029 
L 341.733274 101.616316 
L 342.642052 101.146482 
L 343.029661 100.967914 
L 344.441429 100.210499 
L 344.919351 99.970252 
L 348.187103 98.37217 
L 348.373229 98.26173 
L 349.269223 97.838425 
L 349.668946 97.612198 
L 362.065978 91.218501 
L 362.791855 90.855696 
L 364.45209 89.967088 
L 364.69936 89.845781 
L 366.796419 88.776533 
L 366.985441 88.660954 
L 368.060473 88.122717 
L 368.754637 87.734757 
L 369.498189 87.369713 
L 374.590299 84.652012 
L 375.048348 84.421877 
L 375.099146 84.368231 
L 375.858794 84.044856 
L 376.161446 83.870207 
L 377.664484 83.042924 
L 378.112111 82.822294 
L 378.953546 82.397886 
L 379.446036 82.110097 
L 380.132477 81.753142 
L 383.940984 79.768029 
L 384.036 79.664886 
L 384.39171 79.513446 
L 384.439066 79.46141 
L 384.7937 79.304415 
L 384.840913 79.253791 
L 385.288603 79.031781 
L 385.94562 78.719228 
L 386.249563 78.546057 
L 396.579364 73.090608 
L 397.010719 72.849931 
L 397.354793 72.69899 
L 397.740809 72.468016 
L 398.189743 72.238044 
L 399.040659 71.805288 
L 407.400541 67.462535 
L 407.440341 67.413493 
L 408.134888 67.073028 
L 408.490662 66.89759 
L 408.786407 66.75293 
L 408.983202 66.634975 
L 412.2269 64.953599 
L 412.763004 64.723391 
L 413.182699 64.457923 
L 413.733893 64.222323 
L 414.20721 63.951233 
L 415.036127 63.55483 
L 415.486066 63.308706 
L 415.953118 63.082192 
L 432.863624 54.65696 
L 433.158215 54.53946 
L 433.68029 54.305087 
L 434.005525 54.113046 
L 434.556566 53.880092 
L 434.815073 53.739737 
L 435.266226 53.580849 
L 435.699788 53.331676 
L 436.243705 53.095099 
L 436.689932 52.862543 
L 439.241983 51.67259 
L 440.035123 51.320356 
L 441.897687 50.464086 
L 442.202985 50.294953 
L 442.659587 50.096975 
L 443.25077 49.814743 
L 445.216986 48.91594 
L 448.453153 47.475243 
L 449.032926 47.233885 
L 449.912091 46.821114 
L 450.184708 46.703559 
L 450.585413 46.57519 
L 451.184141 46.283075 
L 451.454083 46.160926 
L 452.034668 45.944474 
L 452.401491 45.784758 
L 453.607432 45.259312 
L 454.358912 44.91319 
L 454.940374 44.693836 
L 455.546715 44.428239 
L 455.889956 44.301273 
L 456.505488 44.014139 
L 456.873395 43.915868 
L 457.443607 43.656801 
L 458.051748 43.411369 
L 458.764325 43.119987 
L 461.628107 42.005048 
L 462.007765 41.877427 
L 462.360229 41.735012 
L 462.880619 41.542013 
L 463.424758 41.314573 
L 464.018074 41.116972 
L 464.979567 40.753343 
L 465.336677 40.666386 
L 465.692791 40.51322 
L 465.857792 40.470288 
L 469.890341 39.204931 
L 469.890341 39.204931 
" style="fill:none;stroke:#0000ff;stroke-linecap:square;stroke-width:1.5;"/>
   </g>
   <g id="line2d_14">
    <path clip-path="url(#pa8b40fd4c8)" d="M 64.072159 245.025749 
L 469.890341 33.437216 
L 469.890341 33.437216 
" style="fill:none;stroke:#ff0000;stroke-dasharray:1.5,2.475;stroke-dashoffset:0;stroke-width:1.5;"/>
   </g>
   <g id="patch_3">
    <path d="M 43.78125 266.938125 
L 43.78125 22.318125 
" style="fill:none;stroke:#000000;stroke-linecap:square;stroke-linejoin:miter;stroke-width:0.8;"/>
   </g>
   <g id="patch_4">
    <path d="M 490.18125 266.938125 
L 490.18125 22.318125 
" style="fill:none;stroke:#000000;stroke-linecap:square;stroke-linejoin:miter;stroke-width:0.8;"/>
   </g>
   <g id="patch_5">
    <path d="M 43.78125 266.938125 
L 490.18125 266.938125 
" style="fill:none;stroke:#000000;stroke-linecap:square;stroke-linejoin:miter;stroke-width:0.8;"/>
   </g>
   <g id="patch_6">
    <path d="M 43.78125 22.318125 
L 490.18125 22.318125 
" style="fill:none;stroke:#000000;stroke-linecap:square;stroke-linejoin:miter;stroke-width:0.8;"/>
   </g>
   <g id="text_15">
    <!-- Hollomon fitted to the data -->
    <g transform="translate(185.477812 16.318125)scale(0.12 -0.12)">
     <defs>
      <path d="M 9.8125 72.90625 
L 19.671875 72.90625 
L 19.671875 43.015625 
L 55.515625 43.015625 
L 55.515625 72.90625 
L 65.375 72.90625 
L 65.375 0 
L 55.515625 0 
L 55.515625 34.71875 
L 19.671875 34.71875 
L 19.671875 0 
L 9.8125 0 
z
" id="DejaVuSans-72"/>
      <path d="M 37.109375 75.984375 
L 37.109375 68.5 
L 28.515625 68.5 
Q 23.6875 68.5 21.796875 66.546875 
Q 19.921875 64.59375 19.921875 59.515625 
L 19.921875 54.6875 
L 34.71875 54.6875 
L 34.71875 47.703125 
L 19.921875 47.703125 
L 19.921875 0 
L 10.890625 0 
L 10.890625 47.703125 
L 2.296875 47.703125 
L 2.296875 54.6875 
L 10.890625 54.6875 
L 10.890625 58.5 
Q 10.890625 67.625 15.140625 71.796875 
Q 19.390625 75.984375 28.609375 75.984375 
z
" id="DejaVuSans-102"/>
      <path d="M 45.40625 46.390625 
L 45.40625 75.984375 
L 54.390625 75.984375 
L 54.390625 0 
L 45.40625 0 
L 45.40625 8.203125 
Q 42.578125 3.328125 38.25 0.953125 
Q 33.9375 -1.421875 27.875 -1.421875 
Q 17.96875 -1.421875 11.734375 6.484375 
Q 5.515625 14.40625 5.515625 27.296875 
Q 5.515625 40.1875 11.734375 48.09375 
Q 17.96875 56 27.875 56 
Q 33.9375 56 38.25 53.625 
Q 42.578125 51.265625 45.40625 46.390625 
z
M 14.796875 27.296875 
Q 14.796875 17.390625 18.875 11.75 
Q 22.953125 6.109375 30.078125 6.109375 
Q 37.203125 6.109375 41.296875 11.75 
Q 45.40625 17.390625 45.40625 27.296875 
Q 45.40625 37.203125 41.296875 42.84375 
Q 37.203125 48.484375 30.078125 48.484375 
Q 22.953125 48.484375 18.875 42.84375 
Q 14.796875 37.203125 14.796875 27.296875 
z
" id="DejaVuSans-100"/>
      <path d="M 54.890625 33.015625 
L 54.890625 0 
L 45.90625 0 
L 45.90625 32.71875 
Q 45.90625 40.484375 42.875 44.328125 
Q 39.84375 48.1875 33.796875 48.1875 
Q 26.515625 48.1875 22.3125 43.546875 
Q 18.109375 38.921875 18.109375 30.90625 
L 18.109375 0 
L 9.078125 0 
L 9.078125 75.984375 
L 18.109375 75.984375 
L 18.109375 46.1875 
Q 21.34375 51.125 25.703125 53.5625 
Q 30.078125 56 35.796875 56 
Q 45.21875 56 50.046875 50.171875 
Q 54.890625 44.34375 54.890625 33.015625 
z
" id="DejaVuSans-104"/>
     </defs>
     <use xlink:href="#DejaVuSans-72"/>
     <use x="75.195312" xlink:href="#DejaVuSans-111"/>
     <use x="136.376953" xlink:href="#DejaVuSans-108"/>
     <use x="164.160156" xlink:href="#DejaVuSans-108"/>
     <use x="191.943359" xlink:href="#DejaVuSans-111"/>
     <use x="253.125" xlink:href="#DejaVuSans-109"/>
     <use x="350.537109" xlink:href="#DejaVuSans-111"/>
     <use x="411.71875" xlink:href="#DejaVuSans-110"/>
     <use x="475.097656" xlink:href="#DejaVuSans-32"/>
     <use x="506.884766" xlink:href="#DejaVuSans-102"/>
     <use x="542.089844" xlink:href="#DejaVuSans-105"/>
     <use x="569.873047" xlink:href="#DejaVuSans-116"/>
     <use x="609.082031" xlink:href="#DejaVuSans-116"/>
     <use x="648.291016" xlink:href="#DejaVuSans-101"/>
     <use x="709.814453" xlink:href="#DejaVuSans-100"/>
     <use x="773.291016" xlink:href="#DejaVuSans-32"/>
     <use x="805.078125" xlink:href="#DejaVuSans-116"/>
     <use x="844.287109" xlink:href="#DejaVuSans-111"/>
     <use x="905.46875" xlink:href="#DejaVuSans-32"/>
     <use x="937.255859" xlink:href="#DejaVuSans-116"/>
     <use x="976.464844" xlink:href="#DejaVuSans-104"/>
     <use x="1039.84375" xlink:href="#DejaVuSans-101"/>
     <use x="1101.367188" xlink:href="#DejaVuSans-32"/>
     <use x="1133.154297" xlink:href="#DejaVuSans-100"/>
     <use x="1196.630859" xlink:href="#DejaVuSans-97"/>
     <use x="1257.910156" xlink:href="#DejaVuSans-116"/>
     <use x="1297.119141" xlink:href="#DejaVuSans-97"/>
    </g>
   </g>
   <g id="legend_1">
    <g id="line2d_15">
     <path d="M 130.90125 231.82875 
L 154.90125 231.82875 
" style="fill:none;stroke:#0000ff;stroke-linecap:square;stroke-width:1.5;"/>
    </g>
    <g id="line2d_16"/>
    <g id="text_16">
     <!-- Stress-Strain log values -->
     <g transform="translate(164.50125 236.02875)scale(0.12 -0.12)">
      <defs>
       <path d="M 53.515625 70.515625 
L 53.515625 60.890625 
Q 47.90625 63.578125 42.921875 64.890625 
Q 37.9375 66.21875 33.296875 66.21875 
Q 25.25 66.21875 20.875 63.09375 
Q 16.5 59.96875 16.5 54.203125 
Q 16.5 49.359375 19.40625 46.890625 
Q 22.3125 44.4375 30.421875 42.921875 
L 36.375 41.703125 
Q 47.40625 39.59375 52.65625 34.296875 
Q 57.90625 29 57.90625 20.125 
Q 57.90625 9.515625 50.796875 4.046875 
Q 43.703125 -1.421875 29.984375 -1.421875 
Q 24.8125 -1.421875 18.96875 -0.25 
Q 13.140625 0.921875 6.890625 3.21875 
L 6.890625 13.375 
Q 12.890625 10.015625 18.65625 8.296875 
Q 24.421875 6.59375 29.984375 6.59375 
Q 38.421875 6.59375 43.015625 9.90625 
Q 47.609375 13.234375 47.609375 19.390625 
Q 47.609375 24.75 44.3125 27.78125 
Q 41.015625 30.8125 33.5 32.328125 
L 27.484375 33.5 
Q 16.453125 35.6875 11.515625 40.375 
Q 6.59375 45.0625 6.59375 53.421875 
Q 6.59375 63.09375 13.40625 68.65625 
Q 20.21875 74.21875 32.171875 74.21875 
Q 37.3125 74.21875 42.625 73.28125 
Q 47.953125 72.359375 53.515625 70.515625 
z
" id="DejaVuSans-83"/>
       <path d="M 4.890625 31.390625 
L 31.203125 31.390625 
L 31.203125 23.390625 
L 4.890625 23.390625 
z
" id="DejaVuSans-45"/>
       <path d="M 2.984375 54.6875 
L 12.5 54.6875 
L 29.59375 8.796875 
L 46.6875 54.6875 
L 56.203125 54.6875 
L 35.6875 0 
L 23.484375 0 
z
" id="DejaVuSans-118"/>
       <path d="M 8.5 21.578125 
L 8.5 54.6875 
L 17.484375 54.6875 
L 17.484375 21.921875 
Q 17.484375 14.15625 20.5 10.265625 
Q 23.53125 6.390625 29.59375 6.390625 
Q 36.859375 6.390625 41.078125 11.03125 
Q 45.3125 15.671875 45.3125 23.6875 
L 45.3125 54.6875 
L 54.296875 54.6875 
L 54.296875 0 
L 45.3125 0 
L 45.3125 8.40625 
Q 42.046875 3.421875 37.71875 1 
Q 33.40625 -1.421875 27.6875 -1.421875 
Q 18.265625 -1.421875 13.375 4.4375 
Q 8.5 10.296875 8.5 21.578125 
z
M 31.109375 56 
z
" id="DejaVuSans-117"/>
      </defs>
      <use xlink:href="#DejaVuSans-83"/>
      <use x="63.476562" xlink:href="#DejaVuSans-116"/>
      <use x="102.685547" xlink:href="#DejaVuSans-114"/>
      <use x="141.548828" xlink:href="#DejaVuSans-101"/>
      <use x="203.072266" xlink:href="#DejaVuSans-115"/>
      <use x="255.171875" xlink:href="#DejaVuSans-115"/>
      <use x="307.271484" xlink:href="#DejaVuSans-45"/>
      <use x="343.355469" xlink:href="#DejaVuSans-83"/>
      <use x="406.832031" xlink:href="#DejaVuSans-116"/>
      <use x="446.041016" xlink:href="#DejaVuSans-114"/>
      <use x="487.154297" xlink:href="#DejaVuSans-97"/>
      <use x="548.433594" xlink:href="#DejaVuSans-105"/>
      <use x="576.216797" xlink:href="#DejaVuSans-110"/>
      <use x="639.595703" xlink:href="#DejaVuSans-32"/>
      <use x="671.382812" xlink:href="#DejaVuSans-108"/>
      <use x="699.166016" xlink:href="#DejaVuSans-111"/>
      <use x="760.347656" xlink:href="#DejaVuSans-103"/>
      <use x="823.824219" xlink:href="#DejaVuSans-32"/>
      <use x="855.611328" xlink:href="#DejaVuSans-118"/>
      <use x="914.791016" xlink:href="#DejaVuSans-97"/>
      <use x="976.070312" xlink:href="#DejaVuSans-108"/>
      <use x="1003.853516" xlink:href="#DejaVuSans-117"/>
      <use x="1067.232422" xlink:href="#DejaVuSans-101"/>
      <use x="1128.755859" xlink:href="#DejaVuSans-115"/>
     </g>
    </g>
    <g id="line2d_17">
     <path d="M 130.90125 249.4425 
L 154.90125 249.4425 
" style="fill:none;stroke:#ff0000;stroke-dasharray:1.5,2.475;stroke-dashoffset:0;stroke-width:1.5;"/>
    </g>
    <g id="line2d_18"/>
    <g id="text_17">
     <!-- Linear Hollomon, K = 1685 MPa, n = 0.2, R²=0.9953 -->
     <g transform="translate(164.50125 253.6425)scale(0.12 -0.12)">
      <defs>
       <path d="M 9.8125 72.90625 
L 19.671875 72.90625 
L 19.671875 8.296875 
L 55.171875 8.296875 
L 55.171875 0 
L 9.8125 0 
z
" id="DejaVuSans-76"/>
       <path d="M 11.71875 12.40625 
L 22.015625 12.40625 
L 22.015625 4 
L 14.015625 -11.625 
L 7.71875 -11.625 
L 11.71875 4 
z
" id="DejaVuSans-44"/>
       <path d="M 9.8125 72.90625 
L 19.671875 72.90625 
L 19.671875 42.09375 
L 52.390625 72.90625 
L 65.09375 72.90625 
L 28.90625 38.921875 
L 67.671875 0 
L 54.6875 0 
L 19.671875 35.109375 
L 19.671875 0 
L 9.8125 0 
z
" id="DejaVuSans-75"/>
       <path d="M 10.59375 45.40625 
L 73.1875 45.40625 
L 73.1875 37.203125 
L 10.59375 37.203125 
z
M 10.59375 25.484375 
L 73.1875 25.484375 
L 73.1875 17.1875 
L 10.59375 17.1875 
z
" id="DejaVuSans-61"/>
       <path d="M 12.40625 8.296875 
L 28.515625 8.296875 
L 28.515625 63.921875 
L 10.984375 60.40625 
L 10.984375 69.390625 
L 28.421875 72.90625 
L 38.28125 72.90625 
L 38.28125 8.296875 
L 54.390625 8.296875 
L 54.390625 0 
L 12.40625 0 
z
" id="DejaVuSans-49"/>
       <path d="M 44.390625 34.1875 
Q 47.5625 33.109375 50.5625 29.59375 
Q 53.5625 26.078125 56.59375 19.921875 
L 66.609375 0 
L 56 0 
L 46.6875 18.703125 
Q 43.0625 26.03125 39.671875 28.421875 
Q 36.28125 30.8125 30.421875 30.8125 
L 19.671875 30.8125 
L 19.671875 0 
L 9.8125 0 
L 9.8125 72.90625 
L 32.078125 72.90625 
Q 44.578125 72.90625 50.734375 67.671875 
Q 56.890625 62.453125 56.890625 51.90625 
Q 56.890625 45.015625 53.6875 40.46875 
Q 50.484375 35.9375 44.390625 34.1875 
z
M 19.671875 64.796875 
L 19.671875 38.921875 
L 32.078125 38.921875 
Q 39.203125 38.921875 42.84375 42.21875 
Q 46.484375 45.515625 46.484375 51.90625 
Q 46.484375 58.296875 42.84375 61.546875 
Q 39.203125 64.796875 32.078125 64.796875 
z
" id="DejaVuSans-82"/>
       <path d="M 13.09375 38.1875 
L 33.796875 38.1875 
L 33.796875 32.625 
L 4.59375 32.625 
L 4.59375 37.984375 
Q 6.25 39.5 9.328125 42.234375 
Q 26.125 57.125 26.125 61.71875 
Q 26.125 64.9375 23.578125 66.90625 
Q 21.046875 68.890625 16.890625 68.890625 
Q 14.359375 68.890625 11.375 68.03125 
Q 8.40625 67.1875 4.890625 65.484375 
L 4.890625 71.484375 
Q 8.640625 72.859375 11.890625 73.53125 
Q 15.140625 74.21875 17.921875 74.21875 
Q 25 74.21875 29.25 71 
Q 33.5 67.78125 33.5 62.5 
Q 33.5 55.71875 17.328125 41.84375 
Q 14.59375 39.5 13.09375 38.1875 
z
" id="DejaVuSans-178"/>
      </defs>
      <use xlink:href="#DejaVuSans-76"/>
      <use x="55.712891" xlink:href="#DejaVuSans-105"/>
      <use x="83.496094" xlink:href="#DejaVuSans-110"/>
      <use x="146.875" xlink:href="#DejaVuSans-101"/>
      <use x="208.398438" xlink:href="#DejaVuSans-97"/>
      <use x="269.677734" xlink:href="#DejaVuSans-114"/>
      <use x="310.791016" xlink:href="#DejaVuSans-32"/>
      <use x="342.578125" xlink:href="#DejaVuSans-72"/>
      <use x="417.773438" xlink:href="#DejaVuSans-111"/>
      <use x="478.955078" xlink:href="#DejaVuSans-108"/>
      <use x="506.738281" xlink:href="#DejaVuSans-108"/>
      <use x="534.521484" xlink:href="#DejaVuSans-111"/>
      <use x="595.703125" xlink:href="#DejaVuSans-109"/>
      <use x="693.115234" xlink:href="#DejaVuSans-111"/>
      <use x="754.296875" xlink:href="#DejaVuSans-110"/>
      <use x="817.675781" xlink:href="#DejaVuSans-44"/>
      <use x="849.462891" xlink:href="#DejaVuSans-32"/>
      <use x="881.25" xlink:href="#DejaVuSans-75"/>
      <use x="946.826172" xlink:href="#DejaVuSans-32"/>
      <use x="978.613281" xlink:href="#DejaVuSans-61"/>
      <use x="1062.402344" xlink:href="#DejaVuSans-32"/>
      <use x="1094.189453" xlink:href="#DejaVuSans-49"/>
      <use x="1157.8125" xlink:href="#DejaVuSans-54"/>
      <use x="1221.435547" xlink:href="#DejaVuSans-56"/>
      <use x="1285.058594" xlink:href="#DejaVuSans-53"/>
      <use x="1348.681641" xlink:href="#DejaVuSans-32"/>
      <use x="1380.46875" xlink:href="#DejaVuSans-77"/>
      <use x="1466.748047" xlink:href="#DejaVuSans-80"/>
      <use x="1522.550781" xlink:href="#DejaVuSans-97"/>
      <use x="1583.830078" xlink:href="#DejaVuSans-44"/>
      <use x="1615.617188" xlink:href="#DejaVuSans-32"/>
      <use x="1647.404297" xlink:href="#DejaVuSans-110"/>
      <use x="1710.783203" xlink:href="#DejaVuSans-32"/>
      <use x="1742.570312" xlink:href="#DejaVuSans-61"/>
      <use x="1826.359375" xlink:href="#DejaVuSans-32"/>
      <use x="1858.146484" xlink:href="#DejaVuSans-48"/>
      <use x="1921.769531" xlink:href="#DejaVuSans-46"/>
      <use x="1953.556641" xlink:href="#DejaVuSans-50"/>
      <use x="2017.179688" xlink:href="#DejaVuSans-44"/>
      <use x="2048.966797" xlink:href="#DejaVuSans-32"/>
      <use x="2080.753906" xlink:href="#DejaVuSans-82"/>
      <use x="2150.236328" xlink:href="#DejaVuSans-178"/>
      <use x="2190.324219" xlink:href="#DejaVuSans-61"/>
      <use x="2274.113281" xlink:href="#DejaVuSans-48"/>
      <use x="2337.736328" xlink:href="#DejaVuSans-46"/>
      <use x="2369.523438" xlink:href="#DejaVuSans-57"/>
      <use x="2433.146484" xlink:href="#DejaVuSans-57"/>
      <use x="2496.769531" xlink:href="#DejaVuSans-53"/>
      <use x="2560.392578" xlink:href="#DejaVuSans-51"/>
     </g>
    </g>
   </g>
  </g>
 </g>
 <defs>
  <clipPath id="pa8b40fd4c8">
   <rect height="244.62" width="446.4" x="43.78125" y="22.318125"/>
  </clipPath>
 </defs>
</svg>
